# xmcd
#
# Track frame offsets:
# 150
# 15469
# 29474
# 46454
# 64459
# 79694
# 95291
# 112113
# 126056
# 138091
# 150451
# 165524
# 181256
# 199197
# 215235
# 229893
# 247643
# 261891
# 273342
#
# Disc length: 3866 seconds
#
#
# Revision: 3
# Processed by: cddbd v1.5.1PL2 Copyright (c) Steve Scherf et al.
# Submitted via: FreeRIP 2.942 
#
DISCID=020f1813
DTITLE=VArious Artist - Promo Only Country 12-2005
DYEAR=2005
DGENRE=Country
TTITLE0=Garth Brooks - Good Ride Cowboy
TTITLE1=Montgomery Gentry - She Don't Tell Me To
TTITLE2=Trisha Yearwood - Trying To Love You
TTITLE3=Tracy Lawrence - If I Don't Make It Back
TTITLE4=Sara Evans - Cheatin'
TTITLE5=Collin Raye - I Know That's Right
TTITLE6=Carrie Underwood - Jesus, Take The Wheel
TTITLE7=Jason Aldean - Why
TTITLE8=Gretchen Wilson - I Don't Feel Like Loving You Today
TTITLE9=Jace Everett - Bad Things
TTITLE10=Cross Canadian Ragweed - Fightin' For
TTITLE11=Ryan Shupe And The Rubberband - Banjo Boy
TTITLE12=Rockie Lynne - Lipstick
TTITLE13=Jack Ingram - Wherever You Are
TTITLE14=Zona Jones - I'll Give It To You
TTITLE15=Bering Strait - You Make Lovin' Fun
TTITLE16=Trent Tomlinson - Drunker Than Me
TTITLE17=Aaron Russell - Different Light
TTITLE18=Lee, Scooter - Holidays In The Bayou
EXTD=
EXTT0=
EXTT1=
EXTT2=
EXTT3=
EXTT4=
EXTT5=
EXTT6=
EXTT7=
EXTT8=
EXTT9=
EXTT10=
EXTT11=
EXTT12=
EXTT13=
EXTT14=
EXTT15=
EXTT16=
EXTT17=
EXTT18=
PLAYORDER=
